<?xml version="1.0" encoding="utf-8"?>
<!-- Generator: Adobe Illustrator 15.1.0, SVG Export Plug-In . SVG Version: 6.00 Build 0)  -->
<!DOCTYPE svg PUBLIC "-//W3C//DTD SVG 1.1//EN" "http://www.w3.org/Graphics/SVG/1.1/DTD/svg11.dtd">
<svg version="1.1" id="Layer_1" xmlns="http://www.w3.org/2000/svg" xmlns:xlink="http://www.w3.org/1999/xlink" x="0px" y="0px"
	 width="200px" height="200px" viewBox="0 0 200 200" enable-background="new 0 0 200 200" xml:space="preserve">
<g>
	<path fill="#FFFFFF" d="M93.029,78.659c-0.064,0.051-0.083,0.139-0.046,0.211c0.141,0.292,3.149,6.441,5.734,7.973l-0.04,9.376
		c-0.163,0.005-0.328,0.006-0.488,0.011c-0.515,0.034-1.021,0.069-1.514,0.101c-0.976,0.099-1.893,0.218-2.687,0.333
		c-0.789,0.131-1.459,0.248-1.936,0.344c-0.493,0.101-0.771,0.165-0.771,0.165c-0.199,0.042-0.396,0.129-0.565,0.259
		c-0.627,0.474-0.749,1.368-0.275,1.994c0.476,0.627,1.37,0.749,1.996,0.276l0.009-0.009c0,0,0.051-0.037,0.149-0.114
		c0.082-0.056,0.192-0.153,0.36-0.262c0.351-0.226,0.877-0.525,1.549-0.805c0.339-0.131,0.704-0.296,1.107-0.407
		c0.4-0.109,0.826-0.254,1.277-0.331c0.451-0.072,0.915-0.184,1.396-0.224c0.474-0.029,0.952-0.058,1.434-0.084
		c0.506,0.033,1.008,0.065,1.504,0.097c0.488,0.042,0.93,0.162,1.376,0.234c0.442,0.08,0.868,0.232,1.271,0.341
		c0.401,0.12,0.765,0.286,1.101,0.421c0.672,0.283,1.195,0.587,1.546,0.817c0.352,0.237,0.49,0.376,0.48,0.368
		c0.688,0.341,1.521,0.059,1.861-0.627c0.341-0.689,0.06-1.518-0.631-1.861c0,0-0.078-0.024-0.227-0.061
		c-0.131-0.03-0.322-0.07-0.566-0.122c-0.475-0.096-1.145-0.221-1.932-0.358c-0.795-0.125-1.7-0.251-2.689-0.357
		c-0.499-0.037-1.008-0.079-1.527-0.115c-0.08-0.003-0.157-0.008-0.232-0.01l0.037-9.534c2.551-1.723,5.434-7.481,5.57-7.768
		c0.035-0.074,0.017-0.16-0.046-0.213c-1.524-1.242-3.46-2.014-5.595-2.238C98.061,76.171,95.147,76.966,93.029,78.659z"/>
	<path fill="#FFFFFF" d="M92.358,64.531c-0.008,0.187-0.053,0.375-0.098,0.574c-0.025,0.103-0.048,0.205-0.064,0.29l-0.039,0.136
		c-0.073,0.251-0.146,0.488-0.235,0.71l-0.042,0.105c-0.098,0.238-0.19,0.461-0.304,0.674c-0.093,0.2-0.198,0.384-0.301,0.56
		l-0.061,0.107c-0.288,0.47-0.531,0.791-0.651,0.946c-0.085,0.108-0.149,0.186-0.19,0.232l-0.091,0.105
		c-0.235,0.271-0.226,0.682,0.019,0.936c0.114,0.118,0.266,0.195,0.432,0.211c0.202,0.021,0.402-0.048,0.552-0.188l0.094-0.091
		c0.065-0.067,0.162-0.158,0.267-0.272c0.258-0.272,0.559-0.64,0.847-1.029l0.068-0.103c0.135-0.187,0.285-0.403,0.418-0.628
		c0.166-0.256,0.307-0.533,0.458-0.826l0.027-0.053c0.155-0.308,0.28-0.634,0.429-1.01c0.03-0.109,0.065-0.218,0.101-0.328
		c0.079-0.245,0.163-0.496,0.198-0.757l0.112-0.566c0.014-0.123,0.024-0.246,0.034-0.368l0.018-0.21
		c0.001-0.063,0.006-0.125,0.013-0.186c0.011-0.125,0.024-0.254,0.013-0.384c-0.009-0.176-0.014-0.347-0.025-0.538
		c-0.002-0.311-0.059-0.595-0.112-0.869l-0.065-0.325c-0.021-0.122-0.045-0.24-0.08-0.354c-0.048-0.147-0.098-0.291-0.142-0.43
		c-0.034-0.088-0.063-0.175-0.09-0.256c-0.059-0.181-0.114-0.35-0.19-0.494l-0.504-1.005c-0.016-0.03-0.034-0.061-0.046-0.079
		c-0.048-0.083-0.112-0.162-0.171-0.211c-0.584-0.819-1.907-1.41-3.542-1.579c-0.296-0.032-0.6-0.048-0.905-0.05
		c-0.232-0.001-0.479,0.01-0.757,0.03l-5.162-0.021l-0.008,0.167c-0.003,0.048-0.04,1.195,1.469,3.256l0.099,0.125l0.006-0.003
		c0.63,0.744,1.896,1.275,3.427,1.434c0.296,0.034,0.6,0.051,0.904,0.051c0.562,0.001,1.114-0.048,1.646-0.146v0.006l0.233-0.051
		c0,0,0.296-0.065,0.659-0.027c0.632,0.064,1.067,0.376,1.285,0.882c0.011,0.051,0.019,0.102,0.024,0.168
		c0.016,0.096,0.029,0.19,0.045,0.286l0.019,0.143c0.014,0.078,0.013,0.155,0.013,0.237c-0.003,0.061-0.003,0.12,0.001,0.168v0.171
		c0.002,0.089,0.003,0.182,0,0.262L92.358,64.531z"/>
	<path fill="#FFFFFF" d="M106.529,63.75l0.008,0.141c0.01,0.143,0.018,0.285,0.039,0.442l0.1,0.545
		c0.037,0.271,0.117,0.526,0.199,0.774c0.033,0.105,0.063,0.213,0.103,0.355c0.128,0.328,0.259,0.667,0.411,0.978l0.021,0.04
		c0.148,0.298,0.293,0.58,0.452,0.832c0.134,0.237,0.278,0.443,0.417,0.642l0.071,0.106c0.274,0.382,0.569,0.75,0.833,1.032
		c0.109,0.117,0.202,0.211,0.27,0.278c0.061,0.058,0.094,0.091,0.094,0.091c0.109,0.107,0.258,0.174,0.41,0.192
		c0.189,0.02,0.384-0.042,0.527-0.165c0.289-0.251,0.32-0.689,0.06-0.997l-0.077-0.091c-0.045-0.048-0.108-0.125-0.189-0.234
		c-0.114-0.147-0.352-0.467-0.637-0.947l-0.063-0.105c-0.102-0.178-0.207-0.363-0.305-0.573c-0.107-0.208-0.201-0.438-0.301-0.683
		l-0.033-0.09c-0.09-0.224-0.157-0.456-0.229-0.707l-0.037-0.125c-0.016-0.102-0.04-0.205-0.063-0.307
		c-0.041-0.2-0.085-0.387-0.093-0.589l-0.046-0.443c-0.007-0.093,0-0.183,0-0.274l0.002-0.16c0.006-0.06,0.006-0.12,0.006-0.178
		c0-0.083,0-0.163,0.018-0.277c0.021-0.134,0.039-0.262,0.063-0.406c0.004-0.053,0.018-0.104,0.012-0.115
		c0.393-0.909,1.281-0.957,1.771-0.906c0.119,0.013,0.186,0.03,0.195,0.03l0.975,0.224l-0.127-0.08
		c0.334,0.042,0.686,0.063,1.031,0.064c1.891,0.008,3.569-0.553,4.342-1.443l0.008,0.006l0.1-0.13
		c1.526-2.044,1.499-3.195,1.494-3.243l-0.003-0.166l-5.165-0.021c-0.264-0.024-0.514-0.035-0.754-0.039
		c-2.01-0.006-3.762,0.618-4.443,1.568c-0.102,0.096-0.182,0.195-0.236,0.309l-0.514,0.999c-0.081,0.146-0.136,0.315-0.195,0.493
		c-0.029,0.085-0.059,0.169-0.094,0.264l-0.15,0.429c-0.033,0.105-0.057,0.217-0.078,0.336l-0.07,0.342
		c-0.055,0.273-0.114,0.557-0.119,0.858l-0.033,0.542c-0.01,0.136,0,0.268,0.013,0.397C106.52,63.627,106.526,63.685,106.529,63.75z
		"/>
	<path fill="#FFFFFF" d="M151.789,33.003c-2.899-3.523-5.9-5.976-8.133-7.528l5.637,1.664c0.213,0.063,0.447-0.019,0.579-0.202
		c0.126-0.184,0.118-0.427-0.013-0.608c-9.783-13.226-32.914-16.325-38.693-16.874c0.824-0.625,2.506-1.67,5.842-3.091
		c0.229-0.096,0.36-0.339,0.308-0.584c-0.052-0.242-0.275-0.424-0.511-0.415c-6.394-0.027-14.848,3.559-16.549,4.584
		C98.57,8.91,83.973,5.266,77.579,5.242c-0.248,0-0.461,0.171-0.514,0.413c-0.049,0.242,0.074,0.485,0.303,0.586
		c3.331,1.449,5.006,2.512,5.819,3.139c-5.782,0.496-24.83,4.409-34.729,17.553c-0.133,0.178-0.139,0.422-0.013,0.608
		c0.126,0.186,0.358,0.267,0.571,0.206l5.653-1.616c-2.245,1.531-3.214,2.931-6.141,6.43c-5.123,6.126-10.84,24.008-8.974,40.13
		c0.027,0.233,0.209,0.424,0.445,0.454c0.226,0.018,0.464-0.099,0.554-0.318l2.713-6.609c-0.366,10.366,0.395,36.662,23.802,54.637
		c0.158,0.123,0.373,0.146,0.55,0.054c0.179-0.092,0.291-0.276,0.285-0.477l-0.08-4.49c2.256,4.771,7.584,9.151,13.146,13.728
		c7.159,5.888,14.563,10.95,17.171,18.765c0.639,1.914,0.96,3.883,0.951,5.85c0,0.005,0,0.008,0,0.012
		c0,0.268,0.201,0.496,0.469,0.52c0.018,0.002,0.033,0.003,0.049,0.002c0.288,0.001,0.523-0.23,0.523-0.518
		c0.008-1.891,0.317-3.773,0.916-5.6c2.6-7.908,10.15-12.977,17.445-18.867c5.61-4.527,14.068-11.952,16.363-16.707l-0.113,4.498
		c-0.01,0.201,0.102,0.383,0.28,0.475c0.181,0.094,0.396,0.078,0.552-0.045c23.561-17.771,21.525-48.171,21.246-58.541l2.658,6.632
		c0.086,0.221,0.313,0.352,0.551,0.323c0.232-0.031,0.417-0.216,0.449-0.453C162.484,49.91,156.857,39.174,151.789,33.003z
		 M64.341,42.739c0,0,1.515,0.131,2.392,0.545c-2.115,0.787-2.327,4.194-2.327,4.194c-4.854-4.896-6.827-10.81-4.406-13.21
		c2.421-2.398,8.075-0.465,12.366,3.991C72.366,38.261,65.867,38.963,64.341,42.739z M116.253,79.448l10.683,11.83
		c-0.054,12.437,1.426,18.995-26.777,18.876l-0.004-0.004c-15.314-0.064-21.853-2.029-24.627-5.795
		c-0.426-0.58-0.773-1.199-1.039-1.861c-1.195-2.974-0.968-6.796-0.947-11.443l10.781-11.736c0,0-14.418-9.885-14.32-32.138
		c0,0,13.646-6.154,30.451-6.082c16.801,0.072,30.399,6.342,30.399,6.342C130.75,69.691,116.253,79.448,116.253,79.448z
		 M135.57,47.435c0,0-0.182-3.408-2.289-4.211c0.879-0.408,3.023,0.579,3.023,0.579c-1.496-3.789-8.61-5.654-8.61-5.654
		c4.325-4.419,9.997-6.303,12.396-3.885C142.488,36.687,140.466,42.583,135.57,47.435z"/>
</g>
<text transform="matrix(1 0 0 1 20 184)" fill="#FFFFFF" font-family="'Arial-BoldMT'" font-size="8">Created by Ola Möller</text>
<text transform="matrix(1 0 0 1 20 192)" fill="#FFFFFF" font-family="'Arial-BoldMT'" font-size="8">from the Noun Project</text>
</svg>
