<svg xmlns="http://www.w3.org/2000/svg" xmlns:xlink="http://www.w3.org/1999/xlink" version="1.1" viewBox="0 0 96 120" x="0px" y="0px"><path d="M78.228 42.996c0 1.246-0.987 2.256-2.204 2.256s-2.204-1.010-2.204-2.256c0-1.246 0.987-2.256 2.204-2.256s2.204 1.010 2.204 2.256z" fill="#FFFFFF"/><path d="M95.684 48.056c-9.132-14.184-20.884-20.592-34.932-20.592h-0.156l-7.436-9.812c-0.556-0.676-1.5-1.7-2.308-1.364l-21.796 9.068c-0.596 0.252-1.032 0.764-1.18 1.396-0.148 0.624 0.016 1.284 0.44 1.768l4.432 5.072c-4.648 3.14-10.032 7.348-12.904 9.636-3.932-8.296-8.36-12.496-13.18-12.496-3.644 0-5.92 2.452-6.164 2.728-0.6 0.68-0.668 1.68-0.168 2.436 10.060 15.092 4.048 28.864 3.788 29.444-0.276 0.608-0.228 1.32 0.128 1.888s0.968 0.916 1.636 0.94l0.728 0.008c4.776 0 8.524-1.368 11.144-4.064 1.988-2.048 2.9-4.444 3.312-6.296 9.18 3.832 18.6 6.316 28.080 7.42l-2.736 8.852c-0.324 1.044 0.252 2.156 1.292 2.492l9.528 3.096c0.204 0.068 0.416 0.096 0.62 0.096 0.72 0 1.412-0.392 1.76-1.056l6.952-12.96c0.432-0.016 0.86-0.028 1.252-0.064 16.996-1.068 24.904-8.212 25.236-8.516 0.416-0.376 0.644-0.888 0.64-1.444 0-0.564-0.24-1.048-0.652-1.42l-1.32-1.108 3.592-2.98c0.76-0.636 0.908-1.34 0.372-2.168zM76.024 49.252c-3.416 0-6.204-2.808-6.204-6.256 0-3.452 2.784-6.26 6.204-6.26s6.204 2.808 6.204 6.26c-0.004 3.452-2.788 6.256-6.204 6.256z" fill="#FFFFFF"/><text x="0" y="111" fill="#FFFFFF" font-size="5px" font-weight="bold" font-family="'Helvetica Neue', Helvetica, Arial-Unicode, Arial, Sans-serif">Created by iconsmind.com</text><text x="0" y="116" fill="#FFFFFF" font-size="5px" font-weight="bold" font-family="'Helvetica Neue', Helvetica, Arial-Unicode, Arial, Sans-serif">from the Noun Project</text></svg>