<?xml version="1.0" encoding="utf-8"?>
<!-- Generator: Adobe Illustrator 15.1.0, SVG Export Plug-In . SVG Version: 6.00 Build 0)  -->
<!DOCTYPE svg PUBLIC "-//W3C//DTD SVG 1.1//EN" "http://www.w3.org/Graphics/SVG/1.1/DTD/svg11.dtd">
<svg version="1.1" id="Layer_1" xmlns="http://www.w3.org/2000/svg" xmlns:xlink="http://www.w3.org/1999/xlink" x="0px" y="0px"
	 width="200px" height="200px" viewBox="0 0 200 200" enable-background="new 0 0 200 200" xml:space="preserve">
<path fill="#FFFFFF" d="M176.992,113.58l-18.738-21.934c-0.641-0.733-1.747-1.14-2.567-1.167l-21.873,0.193l23.305-10.795
	c1.056-0.487,1.786-1.494,1.913-2.66l5.096-45.613c0.191-1.827-1.12-3.48-2.941-3.687c-1.852-0.205-3.479,1.115-3.686,2.948
	l-4.88,43.753l-34.073,15.787l25.039-28.3c0.479-0.546,0.766-1.227,0.82-1.946l4.309-53.093c0.141-1.833-1.227-3.447-3.047-3.594
	c-1.807-0.153-3.453,1.22-3.593,3.054l-4.228,51.98l-21.866,24.72c0.038-0.727,0.134-1.425,0.134-2.187
	c0.045-6.213-1.367-12.613-3.881-17.787c4.467-3.474,6.654-6.567,6.273-9.193c-0.273-1.82-1.967-3.1-3.773-2.827
	c-1.613,0.24-2.786,1.58-2.853,3.153c-0.421,0.7-1.785,2.046-3.294,3.287c-2.581-2.92-5.74-4.82-9.453-4.887
	c-3.653,0.073-6.78,1.973-9.333,4.88c-1.487-1.227-2.86-2.58-3.273-3.273c-0.08-1.567-1.26-2.914-2.867-3.153
	c-1.833-0.273-3.513,1.006-3.773,2.827c-0.38,2.626,1.807,5.72,6.267,9.187c-2.513,5.193-3.926,11.62-3.88,17.827
	c-0.006,1.705,0.113,3.412,0.293,4.993c-0.027,0.052-0.053,0.1-0.08,0.14L62.167,58.68L57.933,6.533
	C57.78,4.7,56.146,3.32,54.34,3.48c-1.84,0.146-3.2,1.76-3.053,3.593l4.307,53.093c0.053,0.62,0.273,1.207,0.64,1.707L75.12,87.462
	L47.38,74.62L42.5,30.867c-0.207-1.84-1.827-3.16-3.687-2.94c-1.82,0.2-3.147,1.853-2.934,3.687l5.093,45.613
	c0.133,1.167,0.854,2.173,1.914,2.66L66.193,90.68l-21.88-0.193c-0.847,0.021-1.927,0.42-2.56,1.167l-18.74,21.934
	c-1.2,1.399-1.033,3.5,0.367,4.706c0.627,0.532,1.394,0.794,2.167,0.794c0.94,0,1.873-0.4,2.533-1.167l17.727-20.738l22.307,0.198
	l-18.18,10.533c-0.693,0.4-1.22,1.034-1.48,1.808l-14.64,42.397c-0.6,1.741,0.32,3.642,2.066,4.241
	c0.36,0.134,0.727,0.179,1.087,0.179c1.38,0,2.673-0.86,3.153-2.247l14.233-41.232l21.78-12.62c-0.733,2.247-1.393,4.5-1.88,6.748
	c-2.88,9.491-0.687,22.487,5.36,30.993c4.86,6.852,11.587,11.813,19.447,11.813c0.046,0,0.093,0,0.14,0c0.046,0,0.093,0,0.14,0
	c7.854,0,14.585-4.962,19.451-11.813c6.029-8.506,8.229-21.92,5.42-31.152c-0.572-2.605-1.338-5.154-2.211-7.681l23.674,13.708
	l14.23,41.233c0.469,1.394,1.762,2.253,3.156,2.253c0.359,0,0.727-0.066,1.08-0.178c1.746-0.594,2.666-2.5,2.072-4.248
	l-14.633-42.398c-0.26-0.76-0.793-1.394-1.486-1.807l-18.18-10.534l22.307-0.191l17.719,20.739c0.668,0.766,1.601,1.16,2.539,1.16
	c0.768,0,1.533-0.261,2.162-0.794C178.021,117.087,178.193,114.986,176.992,113.58z"/>
<text transform="matrix(1 0 0 1 20 185)" fill="#FFFFFF" font-family="'Arial-BoldMT'" font-size="8.3333">Created by iconsmind.com</text>
<text transform="matrix(1 0 0 1 20 193.334)" fill="#FFFFFF" font-family="'Arial-BoldMT'" font-size="8.3333">from the Noun Project</text>
</svg>
