<svg xmlns="http://www.w3.org/2000/svg" xmlns:xlink="http://www.w3.org/1999/xlink" version="1.1" x="0px" y="0px" viewBox="0 0 96 120" enable-background="new 0 0 96 96" xml:space="preserve"><path d="M94.195,68.148l-11.243-13.16c-0.384-0.44-1.048-0.684-1.54-0.7l-13.124,0.116l13.983-6.477  c0.633-0.292,1.072-0.896,1.148-1.596l3.057-27.368c0.115-1.096-0.672-2.088-1.765-2.212C83.6,16.628,82.624,17.42,82.5,18.52  l-2.928,26.252l-20.444,9.472l15.024-16.98c0.287-0.328,0.459-0.736,0.492-1.168L77.229,4.24c0.084-1.1-0.736-2.068-1.828-2.156  c-1.084-0.092-2.072,0.732-2.156,1.832l-2.536,31.188l-13.12,14.832c0.023-0.436,0.08-0.855,0.08-1.312  c0.027-3.728-0.82-7.568-2.328-10.672c2.68-2.084,3.992-3.94,3.764-5.516c-0.164-1.092-1.18-1.86-2.264-1.696  c-0.968,0.144-1.672,0.948-1.712,1.892c-0.252,0.42-1.071,1.228-1.976,1.972c-1.549-1.752-3.444-2.892-5.672-2.932  c-2.192,0.044-4.068,1.184-5.6,2.928c-0.892-0.736-1.716-1.548-1.964-1.964c-0.048-0.94-0.756-1.748-1.72-1.892  c-1.1-0.164-2.108,0.604-2.264,1.696c-0.228,1.576,1.084,3.432,3.76,5.512c-1.508,3.116-2.356,6.972-2.328,10.696  c-0.004,1.023,0.068,2.047,0.176,2.996c-0.016,0.031-0.032,0.06-0.048,0.084L25.3,35.208L22.76,3.92  c-0.092-1.1-1.072-1.928-2.156-1.832c-1.104,0.088-1.92,1.056-1.832,2.156L21.356,36.1c0.032,0.372,0.164,0.724,0.384,1.024  l11.332,15.353l-16.644-7.705L13.5,18.52c-0.124-1.104-1.096-1.896-2.212-1.764c-1.092,0.12-1.888,1.112-1.76,2.212l3.056,27.368  c0.08,0.7,0.512,1.304,1.148,1.596l13.984,6.476l-13.128-0.116c-0.508,0.013-1.156,0.252-1.536,0.7L1.808,68.152  c-0.72,0.84-0.62,2.1,0.22,2.824c0.376,0.319,0.836,0.476,1.3,0.476c0.564,0,1.124-0.24,1.52-0.7l10.636-12.443l13.384,0.119  l-10.908,6.32c-0.416,0.24-0.732,0.62-0.888,1.084L8.288,91.271c-0.36,1.045,0.192,2.185,1.24,2.545  c0.216,0.08,0.436,0.107,0.652,0.107c0.828,0,1.604-0.516,1.892-1.348l8.54-24.74l13.068-7.572c-0.44,1.348-0.836,2.7-1.128,4.049  c-1.728,5.695-0.412,13.492,3.216,18.596c2.916,4.111,6.952,7.088,11.668,7.088c0.028,0,0.056,0,0.084,0s0.056,0,0.084,0  c4.712,0,8.751-2.977,11.671-7.088c3.617-5.104,4.937-13.152,3.252-18.692c-0.344-1.563-0.803-3.092-1.327-4.608l14.204,8.225  l8.539,24.74c0.281,0.836,1.057,1.352,1.893,1.352c0.216,0,0.436-0.04,0.648-0.107c1.048-0.356,1.6-1.5,1.244-2.549l-8.78-25.439  c-0.156-0.456-0.476-0.836-0.892-1.084l-10.908-6.32l13.384-0.115l10.632,12.443c0.4,0.46,0.96,0.696,1.523,0.696  c0.461,0,0.92-0.156,1.297-0.476C94.813,70.252,94.916,68.992,94.195,68.148z"/><text x="0" y="111" fill="#FFFFFF" font-size="5px" font-weight="bold" font-family="'Helvetica Neue', Helvetica, Arial-Unicode, Arial, Sans-serif">Created by iconsmind.com</text><text x="0" y="116" fill="#FFFFFF" font-size="5px" font-weight="bold" font-family="'Helvetica Neue', Helvetica, Arial-Unicode, Arial, Sans-serif">from the Noun Project</text></svg>