<?xml version="1.0" encoding="utf-8"?>
<!-- Generator: Adobe Illustrator 15.1.0, SVG Export Plug-In . SVG Version: 6.00 Build 0)  -->
<!DOCTYPE svg PUBLIC "-//W3C//DTD SVG 1.1//EN" "http://www.w3.org/Graphics/SVG/1.1/DTD/svg11.dtd">
<svg version="1.1" id="Layer_1" xmlns="http://www.w3.org/2000/svg" xmlns:xlink="http://www.w3.org/1999/xlink" x="0px" y="0px"
	 width="200px" height="200px" viewBox="0 0 200 200" enable-background="new 0 0 200 200" xml:space="preserve">
<path fill="#FFFFFF" d="M142.646,81.467c0,1.848-1.496,3.348-3.347,3.348c-1.85,0-3.347-1.498-3.347-3.348
	c0-1.849,1.497-3.347,3.347-3.347C141.15,78.12,142.646,79.618,142.646,81.467z"/>
<path fill="#FFFFFF" d="M172.38,109.473c-4.739-7.772-9.593-18.079-14.307-28.046c-7.727-16.365-15.021-31.827-22.818-39.613
	c-2.953-2.94-6.946-5.307-11.64-6.94c2.595-11.78,1.895-25.86-4.561-32.307c-1.193-1.187-3.073-1.3-4.4-0.273
	c-4.697,3.667-18.813,16.053-16.413,30.993c-10.867,1.973-20.954,7.207-28.72,14.96c-11.542,11.527-49.255,53.3-49.548,106.814
	c-0.006,0.887,0.347,1.753,0.974,2.359c0.626,0.641,1.48,0.98,2.36,0.98h60.52c0.914,0,1.787-0.373,2.414-1.033
	c1.526-1.601,3.78-4.054,6.393-6.928c6.987-7.633,20-21.833,23.587-23.84c0.764-0.426,1.479-0.64,2.173-0.64
	c3.42,0,7.587,4.979,11.993,10.253c2.191,2.641,4.505,5.385,7.012,7.934c2.826,2.854,11.415,11.54,21.488,11.54
	c4.674,0,9.026-1.827,12.92-5.446C182.58,140.26,182.767,126.527,172.38,109.473L172.38,109.473z M139.3,71.453
	c5.534,0,10.026,4.494,10.026,10.014c0,5.525-4.491,10.015-10.026,10.015c-5.534,0-10.026-4.488-10.026-10.015
	C129.273,75.947,133.76,71.453,139.3,71.453z M87.727,145.967c-0.327,0.354-0.6,0.654-0.907,0.986
	c-4.287-3.371-14.426-5.113-30.327-5.113c-3.966,0-7.32-2.807-10.873-5.771c-4.253-3.555-8.954-7.481-15.553-7.568
	c0.546-2.221,1.133-4.406,1.787-6.561c8,0.667,13.74,5.42,18.046,9.021c2.48,2.08,5.047,4.218,6.593,4.218
	c11.58,0,27.454,0.795,34.813,6.896C90.126,143.347,88.94,144.633,87.727,145.967z M100.073,132.666
	c-6.167-17.879-31.046-24.218-36.893-24.218c-4.727,0-8.62-3.894-12.394-7.646c-2.546-2.54-5.713-5.707-7.68-5.707
	c-0.026,0-0.053-0.015-0.08-0.015c1.106-2.065,2.24-4.047,3.386-5.993c3.307,1.253,6.233,4.151,9.087,7
	c2.547,2.545,5.713,5.7,7.68,5.7c7.033,0,33.02,6.273,41.973,25.713C103.586,129.047,101.902,130.767,100.073,132.666z
	 M120.027,119.514c-0.541-0.087-1.074-0.188-1.627-0.188c-1.487,0-2.928,0.414-4.36,1.033c-0.146-0.186-0.313-0.373-0.407-0.6
	c-0.166-0.413-0.26-0.833-0.26-1.267c0-11.807-12.533-24.231-24.92-30.42C79,83.36,75.433,75.573,72.56,69.32
	c-1.6-3.506-2.987-6.526-5.053-8.586c-0.1-0.1-0.14-0.227-0.22-0.333c1.587-1.793,3.067-3.42,4.354-4.767
	c0.193,0.133,0.407,0.213,0.573,0.38c2.92,2.92,4.613,6.62,6.407,10.527c2.68,5.847,5.46,11.894,12.807,15.56
	c10.366,5.173,21.308,14.566,26.112,25.362c1.447-7.095,2.521-18.58,2.521-35.722c0-3.887,1.706-9,3.506-14.414
	c1.565-4.673,3.186-9.507,3.186-12.307c0-0.42,0.1-0.807,0.24-1.173c1.328,0.82,2.555,1.707,3.555,2.7
	c0.773,0.773,1.547,1.693,2.347,2.667c-0.648,3.093-1.773,6.567-2.995,10.22c-1.553,4.673-3.178,9.506-3.178,12.3
	C126.733,97.38,124.453,113.334,120.027,119.514L120.027,119.514z M132.073,127.939c-1.526-1.73-3.06-3.346-4.64-4.686
	c0.4-0.561,0.92-1.027,1.619-1.262c9.689-3.214,12.107-9.932,14.676-17.047c2.131-5.92,4.393-11.994,10.727-15.627
	c0.973,2.06,1.953,4.073,2.934,6.106c-3.907,2.5-5.599,6.787-7.398,11.787C147.347,114.535,144.014,123.54,132.073,127.939z
	 M162.98,133.687c-3.349,5.007-6.807,10.181-10.367,13.753c-2.028-0.958-3.906-2.197-5.533-3.486
	c0.153-0.406,0.406-0.787,0.727-1.113c3.113-3.106,6.422-8.061,9.62-12.859c3.373-5.054,6.866-10.287,10.441-13.867
	c0.132-0.127,0.294-0.178,0.427-0.287c1.254,2.327,2.24,4.467,2.972,6.474C168.575,125.382,165.738,129.553,162.98,133.687z"/>
<text transform="matrix(1 0 0 1 20 185)" fill="#FFFFFF" font-family="'Arial-BoldMT'" font-size="8.3333">Created by iconsmind.com</text>
<text transform="matrix(1 0 0 1 20 193.334)" fill="#FFFFFF" font-family="'Arial-BoldMT'" font-size="8.3333">from the Noun Project</text>
</svg>
