<svg xmlns="http://www.w3.org/2000/svg" xmlns:xlink="http://www.w3.org/1999/xlink" version="1.1" viewBox="0 0 96 120" x="0px" y="0px"><path d="M3.612 60.308c0.060 0.028 0.080 0.068 0.128 0.096 2.54 0.984 4.248 3.36 4.248 6.1 0 1.436 1.18 2.6 2.632 2.6s2.632-1.164 2.632-2.6c0-3.64 2.976-6.6 6.632-6.6s6.628 2.96 6.628 6.6c0 1.436 1.18 2.6 2.632 2.6 1.448 0 2.632-1.164 2.632-2.6 0-3.64 2.976-6.6 6.632-6.6s6.632 2.96 6.632 6.6c0 1.436 1.18 2.6 2.632 2.6s2.632-1.164 2.632-2.6c0-3.64 2.976-6.6 6.632-6.6s6.632 2.96 6.632 6.6c0 1.436 1.18 2.6 2.632 2.6 0.704 0 1.368-0.276 1.868-0.772 0.492-0.484 0.764-1.136 0.764-1.828 0-0.316 0.084-0.6 0.22-0.872 0.748-2.904 1.164-4.824 1.212-7.46-3.656-8.928-5.852-16.332-6.752-22.44-1.82-5.64-6.3-21.748-3.468-35.74h-32c-6.788 0-27.444 0-27.444 20.456l0.008 39c1.056 0.084 2.16 0.38 3.004 0.86zM34.504 12c3.308 0 6 2.692 6 6s-2.688 6-6 6-6-2.692-6-6 2.692-6 6-6z" fill="#FFFFFF"/><path d="M36.504 18c0 1.105-0.895 2-2 2s-2-0.895-2-2c0-1.105 0.895-2 2-2s2 0.895 2 2z" fill="#FFFFFF"/><path d="M90.76 11.596c-5.044-7.24-14.26-11.18-26.66-11.528-2.516 11.28 0.392 25.22 2.668 32.772 14.644 1.62 16.932 11.416 18.964 20.164l0.316 1.36c0.204 0.856 0.94 1.48 1.824 1.536 0.856 0.056 1.692-0.476 2-1.304 7.096-19.192 7.396-33.66 0.888-43z" fill="#FFFFFF"/><path d="M73.608 65.936c-0.712 2.32-1.656 4.36-2.736 5.252-1.256 1.244-2.92 1.92-4.68 1.92-3.656 0-6.632-2.96-6.632-6.596 0-1.432-1.18-2.596-2.632-2.596s-2.632 1.164-2.632 2.596c0 3.64-2.976 6.596-6.636 6.596s-6.632-2.96-6.632-6.596c0-1.432-1.18-2.596-2.632-2.596-1.448 0-2.632 1.164-2.632 2.596 0 3.64-2.976 6.596-6.632 6.596s-6.632-2.96-6.632-6.596c0-1.432-1.18-2.596-2.628-2.596-1.452 0-2.632 1.164-2.632 2.596 0 3.64-2.976 6.596-6.632 6.596s-6.632-2.96-6.632-6.596c0-1.128-0.736-2.12-1.828-2.476-0.344-0.112-1.572-0.32-1.572-0.584v21.876c0 0.108 1.364 10.676 15.724 10.676h59.916c0.408 0 0.808-0.12 1.144-0.356 0.328-0.228 7.888-5.736 0.26-21.176-1.448-2.984-2.768-5.796-4.012-8.536z" fill="#FFFFFF"/><text x="0" y="111" fill="#FFFFFF" font-size="5px" font-weight="bold" font-family="'Helvetica Neue', Helvetica, Arial-Unicode, Arial, Sans-serif">Created by iconsmind.com</text><text x="0" y="116" fill="#FFFFFF" font-size="5px" font-weight="bold" font-family="'Helvetica Neue', Helvetica, Arial-Unicode, Arial, Sans-serif">from the Noun Project</text></svg>