<svg xmlns="http://www.w3.org/2000/svg" xmlns:xlink="http://www.w3.org/1999/xlink" version="1.1" x="0px" y="0px" viewBox="0 0 96 120" enable-background="new 0 0 96 96" xml:space="preserve"><path d="M6.732,53.943c-0.836,0-1.616-0.527-1.896-1.363c-2.112-6.32-0.92-23.072,16.388-31.688  c5.26-2.624,10.356-3.952,15.148-3.952c12.948,0,20.388,9.364,23.964,13.86c0.632,0.796,0.725,2.132,0,2.852  c-3.172,3.176-7.408,6.168-12.924,9.144c-9.84,5.308-20.18,7.101-28.488,8.536c-4.492,0.775-8.372,1.443-11.56,2.508  C7.152,53.916,6.936,53.943,6.732,53.943L6.732,53.943z"/><path d="M92.744,21.856c-3.439-4.484-8.296-7.276-12.672-7.276c-2.564,0-6.225,0.92-9.092,5.312  c-1.496,2.284-2.309,4.644-3.092,6.92C65.84,32.74,63.725,38.876,49.24,46.688c-9.264,4.996-18.828,6.656-27.264,8.121  C11.88,56.561,3.16,58.064,0.152,65.3c-0.276,0.66-0.18,1.416,0.248,1.98c0.428,0.571,1.124,0.868,1.84,0.771  c2.668-0.323,6.132,0.164,9.736,0.868c-0.488,0.584-1.044,1.145-1.564,1.672c-1.52,1.54-3.096,3.133-2.628,5.168  c0.432,1.896,2.416,2.797,3.864,3.313c1.596,0.568,3.372,0.867,5.132,0.867c4.964,0,8.864-2.315,10.596-6.155  c6.816,1.147,13.948,1.252,20.172,1.252l6.556-0.024c0.265,0.225,0.713,0.664,1.057,1c2.016,2.024,5.392,5.404,10.884,5.404  c0.517,0,1.056-0.032,1.664-0.104c2.748-0.408,5.403-1.068,6.296-3.148c0.908-2.112-0.492-4.092-2.104-6.389  c-1.924-2.739-4.32-6.127-3.992-10.611c0.783-1.588,1.472-3.296,2.184-5.068c1.916-4.76,3.9-9.684,8.48-14.052  c1.724,1.372,4.088,2.196,6.52,2.196l0,0c1.756,0,3.504-0.408,5.18-1.2c2.496-1.172,4.416-3.868,5.265-7.388  C96.704,30.824,95.66,25.668,92.744,21.856L92.744,21.856z M81.592,31.024c-1.104,0-2-0.896-2-2s0.896-2,2-2c1.1,0,2,0.896,2,2  S82.7,31.024,81.592,31.024z"/><text x="0" y="111" fill="#FFFFFF" font-size="5px" font-weight="bold" font-family="'Helvetica Neue', Helvetica, Arial-Unicode, Arial, Sans-serif">Created by iconsmind.com</text><text x="0" y="116" fill="#FFFFFF" font-size="5px" font-weight="bold" font-family="'Helvetica Neue', Helvetica, Arial-Unicode, Arial, Sans-serif">from the Noun Project</text></svg>