<svg xmlns="http://www.w3.org/2000/svg" xmlns:xlink="http://www.w3.org/1999/xlink" version="1.1" viewBox="0 0 96 120" x="0px" y="0px"><path d="M46.2 64.876l4.552-5.456h-9.372z" fill="#FFFFFF"/><path d="M67.060 47.652c0 1.162-0.983 2.104-2.196 2.104s-2.196-0.942-2.196-2.104c0-1.162 0.983-2.104 2.196-2.104s2.196 0.942 2.196 2.104z" fill="#FFFFFF"/><path d="M32.852 47.652c0 1.162-0.983 2.104-2.196 2.104s-2.196-0.942-2.196-2.104c0-1.162 0.983-2.104 2.196-2.104s2.196 0.942 2.196 2.104z" fill="#FFFFFF"/><path d="M79.896 1.58c-0.648-0.872-1.876-1.068-2.76-0.432-1.204 0.856-2.44 1.712-3.68 2.572-7.808 5.404-15.86 10.976-17.22 18.424-6.54-0.704-10.168-0.668-16.4-0.056-1.356-7.552-9.604-13.316-17.604-18.904-1.068-0.748-2.128-1.488-3.164-2.228-0.884-0.632-2.112-0.44-2.764 0.428-14.304 19.164-16.232 40.804-16.232 59.44 0 20.368 19.552 34.588 47.548 34.588h0.616c28.080 0 47.692-14.224 47.692-34.588 0-19.616-1.94-40.38-16.032-59.244zM64.864 41.544c3.416 0 6.196 2.74 6.196 6.104s-2.776 6.1-6.196 6.1-6.196-2.74-6.196-6.1 2.776-6.104 6.196-6.104zM30.656 41.544c3.416 0 6.196 2.74 6.196 6.104s-2.78 6.1-6.196 6.1-6.196-2.74-6.196-6.1 2.78-6.104 6.196-6.104zM35.628 74.016c-0.124 0-0.248-0.008-0.372-0.032l-21.108-3.976c-1.084-0.204-1.8-1.252-1.596-2.336s1.252-1.796 2.332-1.592l21.108 3.976c1.084 0.204 1.8 1.252 1.596 2.336-0.176 0.96-1.016 1.624-1.96 1.624zM35.628 65.812c-0.124 0-0.248-0.008-0.372-0.032l-21.108-3.984c-1.084-0.204-1.8-1.248-1.592-2.336 0.204-1.084 1.252-1.796 2.336-1.588l21.108 3.98c1.084 0.204 1.8 1.252 1.592 2.336-0.18 0.96-1.020 1.624-1.964 1.624zM48.032 69.64v9.78c0 1.108-0.896 2-2 2s-2-0.892-2-2v-10.256l-8.592-10.044c-0.52-0.588-0.648-1.612-0.328-2.332 0.324-0.72 1.036-1.368 1.824-1.368h18.092c0.776 0 1.484 0.444 1.812 1.152 0.328 0.704 0.22 1.536-0.276 2.128l-8.532 10.94zM77.944 70.008l-21.104 3.976c-0.124 0.024-0.252 0.032-0.372 0.032-0.944 0-1.784-0.664-1.964-1.624-0.208-1.088 0.508-2.132 1.592-2.336l21.108-3.976c1.084-0.196 2.132 0.5 2.332 1.588 0.216 1.084-0.5 2.136-1.592 2.34zM77.952 61.796l-21.108 3.984c-0.124 0.024-0.252 0.032-0.376 0.032-0.94 0-1.78-0.664-1.96-1.624-0.204-1.084 0.508-2.132 1.588-2.336l21.108-3.984c1.088-0.204 2.132 0.508 2.336 1.592 0.212 1.092-0.504 2.128-1.588 2.336z" fill="#FFFFFF"/><text x="0" y="111" fill="#FFFFFF" font-size="5px" font-weight="bold" font-family="'Helvetica Neue', Helvetica, Arial-Unicode, Arial, Sans-serif">Created by iconsmind.com</text><text x="0" y="116" fill="#FFFFFF" font-size="5px" font-weight="bold" font-family="'Helvetica Neue', Helvetica, Arial-Unicode, Arial, Sans-serif">from the Noun Project</text></svg>