<svg xmlns="http://www.w3.org/2000/svg" xmlns:xlink="http://www.w3.org/1999/xlink" version="1.1" viewBox="0 0 96 120" x="0px" y="0px"><path d="M69.916 0c-10.156 0-13.588 5.612-14.476 11.412-2.116-1.292-4.604-2.036-7.524-2.036-2.692 0-5.036 0.668-7.068 1.82-1.296-7.24-6.584-11.192-15.252-11.192-1.104 0-2 0.896-2 2s0.896 2 2 2c7.672 0 11.336 3.292 11.544 10.284-2.708 3.32-4.248 8.2-4.356 14.38 4.62-3.748 9.572-6.412 14.364-7.204l0.16-0.024 0.312-0.012c0.18 0 0.356 0.020 0.536 0.036-0.132-0.016 0.044-0.036 0.224-0.036l0.452 0.036c4.744 0.784 9.636 3.396 14.208 7.068-0.12-5.864-1.476-10.492-3.88-13.748 0.032-7.448 3.352-10.78 10.752-10.78 1.104 0 2-0.896 2-2 0.004-1.108-0.888-2.004-1.996-2.004z" fill="#FFFFFF"/><path d="M51.868 60c-0.492-1.3-0.968-2.632-1.408-4h-4.916c-0.44 1.368-0.912 2.7-1.408 4h7.732z" fill="#FFFFFF"/><path d="M46.736 52h2.536c-0.464-1.7-0.9-3.412-1.268-5.128-0.372 1.716-0.808 3.428-1.268 5.128z" fill="#FFFFFF"/><path d="M53.548 64h-11.084c-0.644 1.408-1.316 2.752-2.024 4h15.136c-0.716-1.248-1.388-2.592-2.028-4z" fill="#FFFFFF"/><path d="M31.472 84h33.216c0.672-1.252 1.296-2.584 1.86-4h-36.92c0.552 1.416 1.172 2.752 1.844 4z" fill="#FFFFFF"/><path d="M59.452 73.54c-0.42-0.468-0.824-1.008-1.228-1.54h-20.444c-0.408 0.528-0.808 1.080-1.232 1.548-0.872 0.968-1.772 1.76-2.684 2.452h28.276c-0.912-0.696-1.816-1.496-2.688-2.46z" fill="#FFFFFF"/><path d="M48.096 96c5.304 0 10.232-2.908 14.076-8h-28.144c3.836 5.084 8.744 8 14.068 8z" fill="#FFFFFF"/><path d="M33.576 70.864c-2.288 2.532-4.64 3.824-6.992 3.824v0c-1.268-0.004-2.592-0.376-3.94-1.116-3.864-2.116-5.32-6.116-4.336-11.892 2.264-13.268 16.408-30.188 27.66-33.776 0.532 13.148-4.696 34.432-12.392 42.96z" fill="#FFFFFF"/><path d="M73.356 73.58c-3.848 2.104-7.412 1.188-10.932-2.716-7.696-8.528-12.916-29.812-12.392-42.952 11.252 3.584 25.4 20.504 27.66 33.776 0.984 5.764-0.472 9.764-4.336 11.892z" fill="#FFFFFF"/><text x="0" y="111" fill="#FFFFFF" font-size="5px" font-weight="bold" font-family="'Helvetica Neue', Helvetica, Arial-Unicode, Arial, Sans-serif">Created by iconsmind.com</text><text x="0" y="116" fill="#FFFFFF" font-size="5px" font-weight="bold" font-family="'Helvetica Neue', Helvetica, Arial-Unicode, Arial, Sans-serif">from the Noun Project</text></svg>