<svg xmlns="http://www.w3.org/2000/svg" xmlns:xlink="http://www.w3.org/1999/xlink" version="1.1" viewBox="0 0 96 120" x="0px" y="0px"><path d="M82.004 56c-1.104 0-2-0.892-2-2v-4c0-1.108 0.896-2 2-2s2 0.892 2 2v4c0 1.108-0.896 2-2 2z" fill="#FFFFFF"/><path d="M74.004 60c-1.104 0-2-0.892-2-2v-4c0-1.108 0.896-2 2-2s2 0.892 2 2v4c0 1.108-0.896 2-2 2z" fill="#FFFFFF"/><path d="M13.588 37.416c0 1.105-0.895 2-2 2s-2-0.895-2-2c0-1.105 0.895-2 2-2s2 0.895 2 2z" fill="#FFFFFF"/><path d="M82.004 50c7.724 0 14-6.244 14-14 0-1.104-0.896-2-2-2h-3.676c-0.824-2.332-3.056-4-5.656-4-2.608 0-4.832 1.668-5.66 4h-54.992c-0.672-7.456-5.164-12-12.060-12-6.424 0-9.28 3.4-10.544 6.248-1.416 3.196-1.416 6.812-1.416 9.252v34.5c0 1.1 0.896 2 2 2h84c1.1 0 2-0.976 2-2.084 0-7.672-6.28-13.916-14-13.916h-37.6l4.668-8h40.936zM84.936 35.416c1.1 0 2 0.9 2 2 0 1.104-0.9 2-2 2-1.096 0-2-0.896-2-2 0-1.1 0.904-2 2-2zM11.588 43.416c-3.308 0-6-2.688-6-6 0-3.304 2.692-6 6-6s6 2.696 6 6c0 3.312-2.692 6-6 6z" fill="#FFFFFF"/><text x="0" y="111" fill="#FFFFFF" font-size="5px" font-weight="bold" font-family="'Helvetica Neue', Helvetica, Arial-Unicode, Arial, Sans-serif">Created by iconsmind.com</text><text x="0" y="116" fill="#FFFFFF" font-size="5px" font-weight="bold" font-family="'Helvetica Neue', Helvetica, Arial-Unicode, Arial, Sans-serif">from the Noun Project</text></svg>