<svg xmlns="http://www.w3.org/2000/svg" xmlns:xlink="http://www.w3.org/1999/xlink" version="1.1" viewBox="0 0 96 120" x="0px" y="0px"><path d="M64.816 35.388c0 1.261-1.023 2.284-2.284 2.284s-2.284-1.023-2.284-2.284c0-1.261 1.023-2.284 2.284-2.284s2.284 1.023 2.284 2.284z" fill="#FFFFFF"/><path d="M94.456 93.436c-0.12-41.704-13.068-76.144-31.46-88.508-2.456-0.124-5.824-0.168-8.664 0.192-0.032 0.004-0.060 0.028-0.088 0.032-10.504 1.236-21.028 10.332-19.72 22.88 1.252 11.936 12.416 20.608 24.848 19.292 1.096-0.12 2.084 0.68 2.196 1.78 0.112 1.096-0.68 2.080-1.776 2.192-0.968 0.1-1.932 0.156-2.892 0.156-13.448 0-24.008-9.816-25.388-23.004-1.324-12.64 5.912-24.252 21.912-26.892v-0.016c0-0.288 1.316-0.44 2.336-0.536-2.268-0.656-5.072-1.004-7.44-1.004-26.14 0-46.848 41.292-46.848 94 0 1.1 0.652 2 1.756 2h20.016c1.104 0 2-0.9 2-2 0-6.884 4.348-12.488 9.696-12.488s9.696 5.604 9.696 12.488c0 1.1 0.896 2 2 2h16.156c1.1 0 2-0.9 2-2 0-24.452 4.108-34.108 9.012-41.344 5.84 7.564 8.684 21.132 8.684 41.344 0 1.1 0.9 2 2 2h7.964c0.028 0 0.052 0 0.084 0 1.1 0 2-0.9 2-2 0.004-0.196-0.028-0.392-0.080-0.564zM62.532 41.668c-3.476 0-6.296-2.82-6.296-6.284s2.828-6.284 6.296-6.284c3.476 0 6.304 2.82 6.304 6.284s-2.828 6.284-6.304 6.284z" fill="#FFFFFF"/><text x="0" y="111" fill="#FFFFFF" font-size="5px" font-weight="bold" font-family="'Helvetica Neue', Helvetica, Arial-Unicode, Arial, Sans-serif">Created by iconsmind.com</text><text x="0" y="116" fill="#FFFFFF" font-size="5px" font-weight="bold" font-family="'Helvetica Neue', Helvetica, Arial-Unicode, Arial, Sans-serif">from the Noun Project</text></svg>