<svg xmlns="http://www.w3.org/2000/svg" xmlns:xlink="http://www.w3.org/1999/xlink" version="1.1" viewBox="0 0 96 120" x="0px" y="0px"><path d="M36.732 36.984c0 1.33-1.221 2.408-2.728 2.408s-2.728-1.078-2.728-2.408c0-1.33 1.221-2.408 2.728-2.408s2.728 1.078 2.728 2.408z" fill="#FFFFFF"/><path d="M65.104 36.984c0 1.33-1.221 2.408-2.728 2.408s-2.728-1.078-2.728-2.408c0-1.33 1.221-2.408 2.728-2.408s2.728 1.078 2.728 2.408z" fill="#FFFFFF"/><path d="M92.024 30.296c0-8.036-5.952-11.872-10.788-10.848-0.916 0.2-1.632 0.576-2.216 1.052-7.996-15.044-21.104-20.5-31.128-20.5-10.016 0-23.132 5.456-31.132 20.5-0.58-0.476-1.304-0.852-2.228-1.048-4.696-1.004-10.556 3.288-10.556 10.844v1.068c0 5.576-0.012 11.336 4.796 12.604-2.5 13.48 0.552 26.772 8.5 36.832 7.636 9.652 18.796 15.2 30.624 15.2s22.996-5.548 30.624-15.204c7.94-10.060 10.976-23.352 8.476-36.832 5.028-1.284 5.028-6.736 5.028-13.668zM77.608 60.492c0 12.56-12.396 26.596-28.976 26.596s-28.972-14.136-28.972-26.776c0-4.984 2.12-9.804 5.788-13.384-3.756-2.448-5.788-5.96-5.788-10.12 0-7.372 6.284-12.936 14.616-12.936h28.708c8.332 0 14.616 5.556 14.616 12.92 0 4.268-2.116 8.052-5.796 10.56 3.768 3.56 5.804 8.132 5.804 13.14z" fill="#FFFFFF"/><path d="M62.992 27.876h-28.708c-6.152 0-10.616 3.756-10.616 8.936 0 3.492 2.060 6.156 6.132 7.916 0.664 0.284 1.116 0.908 1.196 1.624 0.076 0.716-0.244 1.416-0.828 1.836-4.128 2.944-6.5 7.36-6.5 12.12 0 10.536 10.908 22.78 24.972 22.78s24.972-12.148 24.972-22.596c0-4.652-2.308-8.856-6.5-11.84-0.588-0.416-0.904-1.124-0.832-1.84 0.080-0.716 0.532-1.34 1.196-1.624 3.9-1.688 6.132-4.748 6.132-8.396 0-5.168-4.468-8.916-10.616-8.916zM48.192 48.204c3.708 0 6.732 2.876 6.732 6.408 0 1.104-0.9 2-2 2-1.104 0-2-0.896-2-2 0-1.328-1.228-2.408-2.732-2.408s-2.728 1.084-2.728 2.408c0 1.104-0.896 2-2 2s-2-0.896-2-2c0-3.536 3.020-6.408 6.728-6.408zM27.28 36.984c0-3.532 3.020-6.408 6.728-6.408s6.724 2.872 6.724 6.408-3.016 6.412-6.724 6.412-6.728-2.88-6.728-6.412zM63.976 67.876h-32c-1.104 0-2-0.9-2-2s0.896-2 2-2h32c1.104 0 2 0.9 2 2s-0.892 2-2 2zM62.376 43.392c-3.712 0-6.728-2.876-6.728-6.412s3.016-6.408 6.728-6.408 6.736 2.872 6.736 6.408-3.028 6.412-6.736 6.412z" fill="#FFFFFF"/><text x="0" y="111" fill="#FFFFFF" font-size="5px" font-weight="bold" font-family="'Helvetica Neue', Helvetica, Arial-Unicode, Arial, Sans-serif">Created by iconsmind.com</text><text x="0" y="116" fill="#FFFFFF" font-size="5px" font-weight="bold" font-family="'Helvetica Neue', Helvetica, Arial-Unicode, Arial, Sans-serif">from the Noun Project</text></svg>